# xmcd
#
# Track frame offsets:
# 150
# 21561
# 35699
# 53889
# 65907
# 82766
# 97909
# 111305
# 129307
# 142323
# 157798
# 171977
# 187041
# 198418
# 212851
# 228673
# 246885
# 263605
# 277577
# 289360
#
# Disc length: 4067 seconds
#
#
# Revision: 2
# Processed by: cddbd v1.5.2PL0 Copyright (c) Steve Scherf et al.
# Submitted via: FreeRIP 2.951 
#
DISCID=2d0fe114
DTITLE=eri - Hittiparaati 8 CD2
DYEAR=2003
DGENRE=Other
TTITLE0=Tummat silmät, ruskea tukka - Jean S.
TTITLE1=Puolisen mailia - Yolintu
TTITLE2=Ei jaksa kiinnostaa - Kirsi Ranto
TTITLE3=Kuin pieni tyhma - Finlanders
TTITLE4=Niin joki virtaa - Tomi Markkola
TTITLE5=Laivat kulkee merta riittaa - Tarja Lunnas
TTITLE6=Kivesta veistetty sydan - Janne Tulkki
TTITLE7=Ámame - Lea Laven
TTITLE8=Nautin elamasta - Reijo Taipale
TTITLE9=Lainsuojaton - Antti Huovila
TTITLE10=Marja-Leena - Charlies
TTITLE11=Kaipaan - Maarit Peltoniemi
TTITLE12=Yo on kyynelten - Mikko Kilkkinen
TTITLE13=Ikkunan takaa - Taivalkunta Beat
TTITLE14=Huomenna kahdelta - Merja Larivaara
TTITLE15=Mies joka ei koskaan tanssi - Bablo
TTITLE16=Sulle silmäni annan - Sanna Pietiainen
TTITLE17=Villit bootsit - Syke
TTITLE18=Moro ja naas - Sol.yhtye Suomi
TTITLE19=Onnen ruusut - Antti Raiski
EXTD=
EXTT0=
EXTT1=
EXTT2=
EXTT3=
EXTT4=
EXTT5=
EXTT6=
EXTT7=
EXTT8=
EXTT9=
EXTT10=
EXTT11=
EXTT12=
EXTT13=
EXTT14=
EXTT15=
EXTT16=
EXTT17=
EXTT18=
EXTT19=
PLAYORDER=
